<?xml version="1.0" standalone="no"?>
<!DOCTYPE svg PUBLIC "-//W3C//DTD SVG 1.1//EN" "http://www.w3.org/Graphics/SVG/1.1/DTD/svg11.dtd" >
<svg xmlns="http://www.w3.org/2000/svg">
<metadata>Generated by IcoMoon</metadata>
<defs>
<font id="icomoon" horiz-adv-x="1024">
<font-face units-per-em="1024" ascent="960" descent="-64" />
<missing-glyph horiz-adv-x="1024" />
<glyph unicode="&#x20;" horiz-adv-x="512" d="" />
<glyph unicode="&#xe900;" glyph-name="refresh" d="M992 896h-232.32c159.199-88.997 265.062-256.506 265.062-448.742 0-282.982-229.402-512.384-512.384-512.384s-512.384 229.402-512.384 512.384c0 260.294 194.092 475.255 445.444 508.051l2.581 0.275v-64.704c-217.9-32.598-383.105-218.45-383.105-442.888 0-247.176 200.376-447.552 447.552-447.552s447.552 200.376 447.552 447.552c0 177.58-103.424 331.004-253.323 403.324l-2.676 1.164v-244.48c0-17.673-14.327-32-32-32s-32 14.327-32 32v0 335.040c1.216 0 2.496-0.448 3.712-0.768 2.195 4.147 5.119 7.623 8.634 10.379l0.070 0.053c1.497 1.23 3.173 2.355 4.955 3.311l0.165 0.081c1.017 0.593 2.218 1.173 3.464 1.664l0.184 0.064c3.197 1.317 6.905 2.11 10.79 2.176h320.026c17.673 0 32-14.327 32-32s-14.327-32-32-32v0z" />
<glyph unicode="&#xe901;" glyph-name="more" d="M512 32c-229.75 0-416 186.25-416 416s186.25 416 416 416c229.75 0 416-186.25 416-416v0c0-229.75-186.25-416-416-416v0zM512 812.032c-200.994-0.073-363.904-163.028-363.904-364.032 0-201.049 162.983-364.032 364.032-364.032s364.032 162.983 364.032 364.032v0c-0.109 201.050-163.099 363.995-364.156 364.032h-0.004zM535.040 330.112c-6.508-4.256-14.478-6.788-23.040-6.788s-16.532 2.532-23.203 6.888l0.163-0.1-199.040 199.040c-4.813 4.66-7.801 11.181-7.801 18.4s2.988 13.74 7.794 18.393l0.007 0.007c4.777 4.691 11.33 7.587 18.56 7.587s13.783-2.896 18.564-7.591l-0.004 0.004 184.96-185.152 184.96 185.152c4.777 4.691 11.33 7.587 18.56 7.587s13.783-2.896 18.564-7.591l-0.004 0.004c4.813-4.66 7.801-11.181 7.801-18.4s-2.988-13.74-7.794-18.393l-0.007-0.007z" />
<glyph unicode="&#xe902;" glyph-name="arrow-down" horiz-adv-x="838" d="M279.273 960v-558.545h-279.273l418.909-465.455 418.909 465.455h-279.273v558.545h-279.273z" />
<glyph unicode="&#xe903;" glyph-name="book" d="M806.408-59.849h-574.082c-48.778 0-88.32 39.542-88.32 88.32v0 44.16h44.16v-14.72c0-40.648 32.952-73.6 73.6-73.6v0h515.202c40.648 0 73.6 32.952 73.6 73.6v0 780.162c0 40.648-32.952 73.6-73.6 73.6v0h-515.202c-40.648 0-73.6-32.952-73.6-73.6v0-14.72h-44.16v44.16c0 48.778 39.542 88.32 88.32 88.32v0h574.082c48.778 0 88.32-39.542 88.32-88.32v0-839.043c0-48.778-39.542-88.32-88.32-88.32v0zM188.166 190.392h-44.16v88.32h44.16v-88.32zM144.006 705.593h44.16v-88.32h-44.16v88.32zM188.166 396.472h-44.16v103.040h44.16v-103.040zM762.248-15.689v927.363c48.782 0 44.16-24.818 44.16-73.6v-765.442c0-48.782 4.622-88.32-44.16-88.32zM305.927 705.593h338.561v-29.44h-338.561v29.44zM305.927 543.673h338.561v-29.44h-338.561v29.44zM305.927 381.752h338.561v-29.44h-338.561v29.44zM305.927 219.832h338.561v-29.44h-338.561v29.44zM129.286 779.194h73.6v-29.44h-73.6v29.44zM129.286 573.113h73.6v-29.44h-73.6v29.44zM129.286 352.312h73.6v-29.44h-73.6v29.44zM129.286 146.232h73.6v-29.44h-73.6v29.44z" />
<glyph unicode="&#xe904;" glyph-name="minus" d="M192 512h640c35.346 0 64-28.654 64-64s-28.654-64-64-64h-640c-35.346 0-64 28.654-64 64s28.654 64 64 64z" />
<glyph unicode="&#xe905;" glyph-name="add" d="M848 392h-280v-280c0-30.928-25.072-56-56-56s-56 25.072-56 56v0 280h-280c-30.928 0-56 25.072-56 56s25.072 56 56 56v0h280v280c0 30.928 25.072 56 56 56s56-25.072 56-56v0-280h280c30.928 0 56-25.072 56-56s-25.072-56-56-56v0z" />
<glyph unicode="&#xe906;" glyph-name="arrow-up" d="M651.206-62.422v556.824h278.412l-417.618 464.020-417.618-464.020h278.412v-556.824h278.412z" />
<glyph unicode="&#xe907;" glyph-name="car" d="M1004.951 542.895c-15.405-3.746-28.549-8.125-41.203-13.44l1.78 0.663s24.031-81.106 28.349-250.79 3.154-193.285 3.154-193.285-14.336-55.91-56.681-46.323h-70.82c-23.275 4.061-41.189 22.735-44.057 46.064l-0.026 0.259v62.29h-625.138v-59.010s-7.293-53.079-50.301-49.602l-78.722-1.595c-21.719 6.086-37.686 24.923-39.413 47.737l-0.011 0.181c-13.35 376.875 31.485 447.264 31.485 447.264s-68.687-2.365-62.989 44.8 21.504 38.743 70.856 38.331c3.103 0.083 6.756 0.13 10.42 0.13 18.532 0 36.782-1.206 54.676-3.545l-2.108 0.225 56.681 167.731s27.615 88.274 173.214 75.067h349.547s103.739 1.541 127.536-89.456c15.642-61.162 31.809-111.212 50.559-159.98l-3.322 9.828 100.782 1.523c2.591 0.94 5.582 1.484 8.699 1.484 14.489 0 26.235-11.746 26.235-26.235 0-1.384-0.107-2.743-0.314-4.069l0.019 0.147c1.505-39.012-6.917-44.639-18.888-46.395zM392.411 295.295c0-0.053-0.001-0.117-0.001-0.18 0-13.951 11.259-25.273 25.186-25.374h195.338c13.937 0.101 25.196 11.423 25.196 25.374 0 0.063 0 0.126-0.001 0.19v-0.010 54.315c0 0.053 0.001 0.117 0.001 0.18 0 13.951-11.259 25.273-25.186 25.374h-195.338c-13.937-0.101-25.196-11.423-25.196-25.374 0-0.063 0-0.126 0.001-0.19v0.010-54.315zM162.552 311.28c0.586-39.554 32.787-71.393 72.425-71.393 40.003 0 72.432 32.429 72.432 72.432 0 40.001-32.425 72.428-72.425 72.432v0c-40.069-0.304-72.434-32.856-72.434-72.968 0-0.177 0.001-0.354 0.002-0.531v0.027zM820.716 617.962s0-9.050-22.042 70.282-37.793 78.274-37.793 78.274h-494.394c-39.89-44.191-66.125-170.921-66.125-170.921 17.92-72.415 100.782-60.695 100.782-60.695h434.541c108.129 0 85.030 83.059 85.030 83.059zM790.79 384.752c-0.309 0.005-0.674 0.007-1.039 0.007-40.577 0-73.472-32.894-73.472-73.472s32.894-73.472 73.472-73.472c40.575 0 73.468 32.89 73.472 73.464v0c0.001 0.15 0.002 0.327 0.002 0.504 0 40.112-32.365 72.664-72.405 72.968h-0.029z" />
<glyph unicode="&#xe908;" glyph-name="avatar" d="M512.009 923.193c188.543 0 221.012-124.175 221.012-277.345s-99.378-277.345-221.012-277.345-221.012 124.175-221.012 277.345 28.685 277.345 221.012 277.345zM372.662 354.938c37.717-28.857 85.547-46.239 137.437-46.239s99.72 17.382 137.985 46.642l-0.548-0.402 9.279-37.1s-5.564-27.216 61.292-48.229 187.593-59.357 187.593-59.357c53.634-14.047 93.689-59.086 100.164-114.387l0.060-0.629c14.93-98.255 1.918-122.447 1.918-122.447h-993.604s-17.28 106.359 27.855 185.519c0 0 22.291 46.38 120.719 66.787 0 0 131.864 37.1 156.022 48.229s41.472 14.844 46.432 38.949 7.396 42.665 7.396 42.665z" />
<glyph unicode="&#xe909;" glyph-name="success" d="M512-64c-282.455 0.182-511.36 229.199-511.36 511.68 0 282.593 229.087 511.68 511.68 511.68 282.48 0 511.497-228.904 511.68-511.342v-0.018c0-282.77-229.23-512-512-512v0zM796.736 662.4c-22.59-0.033-42.917-9.694-57.102-25.097l-0.050-0.055-251.904-255.616h-44.16l-125.952 122.688c-7.762 14.168-19.308 25.426-33.286 32.625l-0.442 0.207c-10.194 5.331-22.254 8.493-35.045 8.576h-0.027c-0.041 0-0.089 0-0.137 0-43.511 0-78.784-35.273-78.784-78.784 0-21.933 8.963-41.773 23.425-56.056l0.008-0.008 253.248-241.088h57.6l340.096 352.384c6.986 5.19 12.917 11.305 17.752 18.241l0.168 0.255 3.2 3.392v2.24c6.368 10.874 10.16 23.93 10.24 37.865v0.023c0 0.096 0.001 0.21 0.001 0.324 0 43.193-35.015 78.208-78.208 78.208-0.293 0-0.585-0.002-0.877-0.005h0.044z" />
<glyph unicode="&#xe90a;" glyph-name="remove-circle" d="M512-64c-282.77 0-512 229.23-512 512s229.23 512 512 512c282.77 0 512-229.23 512-512v0c0-282.77-229.23-512-512-512v0zM512 896c-247.424 0-448-200.576-448-448s200.576-448 448-448c247.424 0 448 200.576 448 448v0c-0.029 247.411-200.588 447.971-447.997 448h-0.003zM557.568 447.795l135.68-135.578c5.766-5.804 9.329-13.801 9.329-22.63 0-17.736-14.377-32.113-32.113-32.113-8.906 0-16.965 3.625-22.782 9.481l-135.682 135.631-136.192-136.55c-5.84-5.81-13.893-9.402-22.784-9.402s-16.944 3.592-22.785 9.403l0.001-0.001c-5.926 5.797-9.6 13.874-9.6 22.81s3.674 17.013 9.594 22.804l0.006 0.006 136.192 136.499-135.68 135.629c-5.468 5.745-8.832 13.537-8.832 22.115 0 17.73 14.373 32.102 32.102 32.102 8.667 0 16.531-3.434 22.307-9.016l135.671-135.569 137.216 137.523c5.899 6.27 14.25 10.174 23.513 10.174 17.814 0 32.256-14.442 32.256-32.256 0-9.276-3.915-17.637-10.184-23.522l-0.017-0.016z" />
<glyph unicode="&#xe90b;" glyph-name="doc-empty" horiz-adv-x="819" d="M693.248-64h-567.296c-69.681 0.549-125.957 57.163-125.957 126.921 0 0.379 0.002 0.758 0.005 1.137v-0.058 768c-0.003 0.321-0.005 0.7-0.005 1.079 0 69.758 56.276 126.373 125.905 126.921h378.42c41.984 0.666 58.88-0.922 62.976-0.922v0.922l251.904-256v-640c0.003-0.321 0.005-0.7 0.005-1.079 0-69.758-56.276-126.373-125.905-126.921h-0.052zM567.296 896v-128c-0.001-0.153-0.002-0.333-0.002-0.514 0-34.884 28.135-63.197 62.951-63.486h125.979zM756.224 640h-125.952c-69.681 0.549-125.957 57.163-125.957 126.921 0 0.379 0.002 0.758 0.005 1.137v-0.058s-1.536 51.2-1.024 128h-377.344c-34.843-0.289-62.978-28.602-62.978-63.486 0-0.181 0.001-0.361 0.002-0.542v0.028-768c-0.001-0.153-0.002-0.333-0.002-0.514 0-34.884 28.135-63.197 62.951-63.486h567.323c34.843 0.289 62.978 28.602 62.978 63.486 0 0.181-0.001 0.361-0.002 0.542v-0.028 576z" />
<glyph unicode="&#xe90c;" glyph-name="doc-fill" horiz-adv-x="819" d="M693.248-64h-567.296c-69.681 0.549-125.957 57.163-125.957 126.921 0 0.379 0.002 0.758 0.005 1.137v-0.058 768c-0.003 0.321-0.005 0.7-0.005 1.079 0 69.758 56.276 126.373 125.905 126.921h378.42c41.984 0.666 58.88-0.922 62.976-0.922v0.922l251.904-256v-640c0.003-0.321 0.005-0.7 0.005-1.079 0-69.758-56.276-126.373-125.905-126.921h-0.052zM567.296 896v-128c-0.001-0.153-0.002-0.333-0.002-0.514 0-34.884 28.135-63.197 62.951-63.486h125.979zM756.224 640h-125.952c-69.681 0.549-125.957 57.163-125.957 126.921 0 0.379 0.002 0.758 0.005 1.137v-0.058s-1.536 51.2-1.024 128h-377.344c-34.843-0.289-62.978-28.602-62.978-63.486 0-0.181 0.001-0.361 0.002-0.542v0.028-768c-0.001-0.153-0.002-0.333-0.002-0.514 0-34.884 28.135-63.197 62.951-63.486h567.323c34.843 0.289 62.978 28.602 62.978 63.486 0 0.181-0.001 0.361-0.002 0.542v-0.028 576zM598.528 192h-377.856c-17.673 0-32 14.327-32 32s14.327 32 32 32v0h377.856c17.673 0 32-14.327 32-32s-14.327-32-32-32v0zM598.528 384h-377.856c-17.673 0-32 14.327-32 32s14.327 32 32 32v0h377.856c17.673 0 32-14.327 32-32s-14.327-32-32-32v0z" />
<glyph unicode="&#xe90d;" glyph-name="trash" d="M836.915 640v-576c0.059-1.421 0.092-3.088 0.092-4.764 0-66.333-52.363-120.436-118.009-123.228l-0.252-0.009h-413.491c-65.903 2.829-118.26 56.943-118.26 123.285 0 1.658 0.033 3.309 0.098 4.951l-0.007-0.236v576c-32.951 1.414-59.13 28.471-59.13 61.643 0 0.829 0.016 1.654 0.049 2.475l-0.004-0.118v64c-0.029 0.703-0.045 1.528-0.045 2.357 0 33.171 26.178 60.228 59.002 61.638l0.127 0.004h177.254v64c-0.029 0.704-0.045 1.53-0.045 2.36 0 33.153 26.15 60.199 58.949 61.636l0.13 0.005h177.254c32.951-1.414 59.13-28.471 59.13-61.643 0-0.829-0.016-1.654-0.049-2.475l0.004 0.118v-64h177.203c32.951-1.414 59.13-28.471 59.13-61.643 0-0.829-0.016-1.654-0.049-2.475l0.004 0.118v-64c0.029-0.703 0.045-1.528 0.045-2.357 0-33.171-26.178-60.228-59.002-61.638l-0.127-0.004zM246.17 64c-0.029-0.703-0.045-1.528-0.045-2.357 0-33.171 26.178-60.228 59.002-61.638l0.127-0.004h413.491c32.928 1.272 59.14 28.273 59.14 61.397 0 0.915-0.020 1.826-0.060 2.732l0.004-0.129v576h-531.661v-576zM600.627 864c0.018 0.388 0.028 0.844 0.028 1.302 0 16.562-13.106 30.062-29.512 30.697l-0.058 0.002h-118.17c-16.464-0.636-29.57-14.137-29.57-30.698 0-0.458 0.010-0.913 0.030-1.366l-0.002 0.064v-32h177.254v32zM807.373 768h-590.746c-16.592-1.368-29.54-15.172-29.54-32s12.948-30.632 29.425-31.992l0.116-0.008h590.746c16.592 1.368 29.54 15.172 29.54 32s-12.948 30.632-29.425 31.992l-0.116 0.008zM364.288 512c16.464-0.636 29.57-14.137 29.57-30.698 0-0.458-0.010-0.913-0.030-1.366l0.002 0.064v-384c0.065-0.737 0.102-1.595 0.102-2.462 0-16.372-13.272-29.645-29.645-29.645s-29.645 13.272-29.645 29.645c0 0.867 0.037 1.724 0.11 2.572l-0.008-0.11v384c-0.018 0.388-0.028 0.844-0.028 1.302 0 16.562 13.106 30.062 29.512 30.697l0.058 0.002zM512 512c16.464-0.636 29.57-14.137 29.57-30.698 0-0.458-0.010-0.913-0.030-1.366l0.002 0.064v-384c0.065-0.737 0.102-1.595 0.102-2.462 0-16.372-13.272-29.645-29.645-29.645s-29.645 13.272-29.645 29.645c0 0.867 0.037 1.724 0.11 2.572l-0.008-0.11v384c-0.018 0.388-0.028 0.844-0.028 1.302 0 16.562 13.106 30.062 29.512 30.697l0.058 0.002zM659.712 512c16.441-0.663 29.519-14.153 29.519-30.697 0-0.458-0.010-0.915-0.030-1.368l0.002 0.065v-384c0.049-0.638 0.077-1.381 0.077-2.131 0-16.344-13.25-29.594-29.594-29.594s-29.594 13.25-29.594 29.594c0 0.75 0.028 1.493 0.083 2.229l-0.006-0.098v384c-0.018 0.388-0.028 0.844-0.028 1.302 0 16.562 13.106 30.062 29.512 30.697l0.058 0.002z" />
<glyph unicode="&#xe90e;" glyph-name="failed" d="M512-64c-0.114 0-0.249 0-0.384 0-282.77 0-512 229.23-512 512s229.23 512 512 512c282.77 0 512-229.23 512-512v0c0-282.635-229.011-511.781-511.595-512h-0.021zM747.328 623.808l-67.2 78.528-41.088-18.688-115.776-127.104h-26.176l-130.688 134.4h-29.888l-56-71.040 3.712-26.176 115.776-130.816v-29.952l-126.976-127.104 3.776-18.688 63.488-63.488 41.024-7.488 134.4 127.104 134.4-119.616 33.6-11.264 63.488 78.528v37.376l-126.976 100.928v33.664l138.176 123.328z" />
<glyph unicode="&#xe90f;" glyph-name="agnle-down" d="M511.936 123.968l512.064 517.44-57.984 58.56-454.016-458.752-454.016 458.752-57.984-58.56 511.936-517.44z" />
<glyph unicode="&#xe910;" glyph-name="agnle-left" d="M188.032 448.064l517.376-512.064 58.624 57.984-458.816 454.016 458.752 454.016-58.56 57.984-517.376-511.936z" />
<glyph unicode="&#xe911;" glyph-name="agnle-right" d="M836.032 447.936l-517.44 512.064-58.56-57.984 458.752-454.016-458.752-454.016 58.56-57.984 517.44 511.936z" />
<glyph unicode="&#xe912;" glyph-name="agnle-up" d="M511.936 769.984l512.064-517.44-57.984-58.56-454.016 458.816-454.016-458.752-57.984 58.496 511.936 517.44z" />
<glyph unicode="&#xe913;" glyph-name="ban-circle" d="M512-64c-281.6 0-512 230.4-512 512s230.4 512 512 512 512-230.4 512-512-230.4-512-512-512v0 0zM512 896c-249.6 0-448-198.4-448-448s198.4-448 448-448 448 198.4 448 448-198.4 448-448 448v0 0zM139.328 138.624l681.984 682.048 63.36-63.36-681.984-682.048-63.36 63.36z" />
<glyph unicode="&#xe915;" glyph-name="calendar" d="M366.464 359.104h-146.56v146.24h146.56v-146.24zM587.712 505.344h-146.432v-146.24h146.432v146.24zM809.024 505.344h-146.432v-146.24h146.432v146.24zM366.464 291.712h-146.56v-146.496h146.56v146.496zM587.712 291.712h-146.432v-146.496h146.432v146.496zM809.024 291.712h-146.432v-146.496h146.432v146.496zM863.36 800.896c0-24.96-20.16-45.184-45.12-45.184s-45.184 20.224-45.184 45.184v113.792c0 24.96 20.224 45.12 45.184 45.12s45.12-20.16 45.12-45.12v-113.792zM253.248 914.88c0 24.96-20.288 45.12-45.248 45.12s-45.12-20.16-45.12-45.12v-113.6c0-24.96 20.224-45.184 45.184-45.184s45.184 20.224 45.184 45.184v113.6zM917.952 848.896v-46.336c0-54.976-44.672-99.776-99.712-99.776s-99.84 44.8-99.84 99.776v46.336h-410.56v-46.144c0-54.976-44.8-99.776-99.84-99.776-54.912 0-99.776 44.8-99.776 99.776v46.144h-108.224v-892.288h1024v892.288h-106.048zM924.608 56h-825.216v552.896h825.216v-552.896zM924.608 56v0z" />
<glyph unicode="&#xe916;" glyph-name="desktop" d="M640 895.808v0-319.616c0-0.448-0.256-0.192 0.192-0.192h319.616c0.448 0 0.192-0.256 0.192 0.192v319.616c0 0.448 0.256 0.192-0.192 0.192h-319.616c-0.448 0-0.192 0.256-0.192-0.192v0 0zM576 895.808c0 35.456 28.032 64.192 64.192 64.192h319.616c35.456 0 64.192-28.032 64.192-64.192v-319.616c0-35.456-28.032-64.192-64.192-64.192h-319.616c-35.456 0-64.192 28.032-64.192 64.192v319.616zM0 895.808c0 35.456 28.032 64.192 64.192 64.192h319.616c35.456 0 64.192-28.032 64.192-64.192v-319.616c0-35.456-28.032-64.192-64.192-64.192h-319.616c-35.456 0-64.192 28.032-64.192 64.192v319.616zM0 319.808c0 35.456 28.032 64.192 64.192 64.192h319.616c35.456 0 64.192-28.032 64.192-64.192v-319.616c0-35.456-28.032-64.192-64.192-64.192h-319.616c-35.456 0-64.192 28.032-64.192 64.192v319.616zM576 319.808c0 35.456 28.032 64.192 64.192 64.192h319.616c35.456 0 64.192-28.032 64.192-64.192v-319.616c0-35.456-28.032-64.192-64.192-64.192h-319.616c-35.456 0-64.192 28.032-64.192 64.192v319.616z" />
<glyph unicode="&#xe917;" glyph-name="exclamation" d="M512-64c-281.6 0-512 230.4-512 512s230.4 512 512 512c281.664 0 512-230.4 512-512s-230.4-512-512-512v0 0zM512 896c-249.6 0-448-198.4-448-448s198.4-448 448-448c249.664 0 448 198.4 448 448s-198.4 448-448 448v0 0zM449.344 160v115.264h125.376v-115.264h-125.376zM449.344 736h125.376v-403.2h-125.376v403.2z" />
<glyph unicode="&#xe918;" glyph-name="sidebar-finance" d="M512.128 960c-282.88 0-512.128-229.248-512.128-512.064s229.248-511.936 512.128-511.936c282.688 0 511.872 229.184 511.872 511.936 0 282.816-229.184 512.064-511.872 512.064v0zM706.88 449.6v-72.32h-153.216v-41.664h153.216v-68.8h-153.216v-126.976h-81.6v126.976h-154.048v68.8h154.048v41.664h-154.048v72.32h121.856l-151.232 278.4h90.88l109.952-205.824c9.152-17.152 16.256-32 22.080-45.376 6.208 12.864 13.952 29.248 23.936 48.896l103.872 202.304h96.064l-150.464-278.4h121.92z" />
<glyph unicode="&#xe919;" glyph-name="full" d="M758.656 245.696c3.328 9.408 6.080 20.096 8.064 31.936 1.984 11.904 3.712 24.64 5.056 38.144-9.408 3.392-18.688 6.912-27.84 10.688-9.024 3.712-18.24 7.552-27.712 11.712-0.64-8.128-1.6-17.344-3.008-27.456s-3.008-21.696-5.056-34.56c-3.392-20.288-18.112-30.464-44.288-30.464h-30.208c-26.88-1.984-39.296 9.408-37.312 34.56v137.088l76.608 2.048 35.264-35.584 45.376 40.64c-26.24 23.68-52.224 47.040-78.144 70.080-25.856 23.040-51.52 45.376-77.056 67.008l-39.36-30.464c3.392-3.392 7.552-7.232 12.608-11.712 5.056-4.352 11.008-9.92 17.664-16.704 14.784-12.864 25.28-23.36 31.232-31.488l-237.888-6.080c36.224 30.528 79.296 70.72 129.024 120.832h253.056v55.808h-212.736c-0.704 2.048-1.344 5.12-1.984 9.152l-4.096 14.272c-3.264 10.816-6.144 19.584-8.512 26.368s-3.84 12.16-4.544 16.256l-66.496-7.168c1.344-3.328 3.008-8.448 4.992-15.168 1.984-6.784 4.672-14.848 8.064-24.384 3.392-10.176 5.376-16.64 6.080-19.328h-233.856v-55.872h181.44c-31.616-35.2-63.808-65.984-96.768-92.352-14.72-14.912-32.256-26.752-52.416-35.52l29.248-55.872c5.376 1.344 13.248 2.688 23.68 4.032s24.384 2.752 41.792 4.096h24.192c0-50.816-11.072-87.36-33.28-109.696-19.52-23.744-61.12-45.76-124.928-65.984 1.344-2.752 3.008-5.632 4.992-8.704s4.672-6.848 8.064-11.712c5.376-7.424 9.92-13.888 13.632-19.328 3.712-5.376 6.592-10.112 8.576-14.208 130.368 40.64 191.488 118.784 183.424 234.56l73.6 2.048v-154.368c-1.344-47.36 22.784-70.080 72.576-68.032h65.472c47.744-1.92 75.648 14.976 83.712 50.88v0 0zM758.656 245.696v0zM512-64c-281.6 0-512 230.4-512 512s230.4 512 512 512c281.664 0 512-230.4 512-512s-230.4-512-512-512v0 0zM512 896c-249.6 0-448-198.4-448-448s198.4-448 448-448c249.664 0 448 198.4 448 448s-198.4 448-448 448v0 0z" />
<glyph unicode="&#xe91a;" glyph-name="info-circle" d="M512-64c-281.6 0-512 230.4-512 512s230.4 512 512 512 512-230.4 512-512-230.4-512-512-512v0 0zM512 896c-249.6 0-448-198.4-448-448s198.4-448 448-448 448 198.4 448 448-198.4 448-448 448v0 0zM449.344 736h125.376v-115.264h-125.376v115.264zM449.344 160v403.2h125.376v-403.2h-125.376z" />
<glyph unicode="&#xe91b;" glyph-name="sidebar-markting" d="M709.376 960c-46.656 0-98.112-19.648-139.136-57.216-70.4-64.64-111.488-183.808-56.704-234.048 17.664-16.192 43.072-23.232 71.808-23.232 60.544 0 135.68 31.424 183.488 75.264 70.4 64.576 83.136 157.76 28.288 208-22.912 21.056-54.080 31.232-87.744 31.232v0 0 0zM709.376 883.776v0c8.704 0 24.768-1.408 34.944-10.816 2.368-2.112 9.408-8.64 9.408-24.64 0-17.984-9.92-46.336-37.76-71.872-34.112-31.232-90.304-54.848-130.688-54.848-11.712 0-17.152 2.112-18.112 2.112-0.064 0-0.128 0-0.128 0-7.424 15.040 8.96 80.128 56.064 123.328 25.024 23.040 57.344 36.736 86.272 36.736v0zM313.92 960c-33.6 0-64.768-10.176-87.68-31.232-54.72-50.24-41.984-143.424 28.416-208 47.744-43.84 122.88-75.264 183.424-75.264 28.736 0 54.144 7.040 71.744 23.232 54.848 50.24 13.696 169.408-56.704 234.048-41.024 37.568-92.48 57.216-139.2 57.216v0 0 0zM313.92 883.776c28.992 0 61.248-13.76 86.4-36.736 47.424-43.52 63.68-109.248 57.088-122.24-0.064 0-5.12-3.136-19.392-3.136-40.448 0-96.576 23.616-130.624 54.848-27.84 25.536-37.76 53.888-37.76 71.872 0 16 7.040 22.528 9.408 24.64 10.24 9.408 26.24 10.752 34.88 10.752v0zM938.688 608.128c0 41.088-15.168 67.456-56.896 67.456h-341.376v-341.376h398.208v273.92h0.064zM540.416 277.312v-341.312h341.312c41.728 0 56.896 15.808 56.896 56.896v284.48l-398.208-0.064zM483.584 334.208v341.376l-322.432 7.232c-41.728 0-75.84-33.6-75.84-74.688v-273.92h398.272zM85.312 272.064v-261.376c0-41.088 34.112-74.688 75.84-74.688h322.368v341.312l-398.208-5.248z" />
<glyph unicode="&#xe91c;" glyph-name="sidebar-member" d="M454.976 334.592c0 11.264 0.128 23.744 0.32 36.864 13.632 14.912 44.864 53.248 57.216 105.472 12.608 5.824 23.168 18.368 29.824 35.904 9.28 24.704 9.984 58.752-8.128 80.832 0.128 0.448 0.192 0.704 0.256 1.088 3.392 30.912 12.416 113.152-37.12 166.976-28.608 31.104-71.36 55.552-126.976 57.024-55.68-1.472-98.432-25.92-126.976-56.96-49.536-53.888-40.512-136.064-37.184-167.040 0.064-0.448 0.128-0.704 0.128-1.088-18.048-22.080-17.344-56.128-8.064-80.832 6.656-17.536 17.088-30.080 29.696-35.904 12.352-52.288 43.392-90.56 56.96-105.472 0.128-13.184-0.192-24.256-0.192-35.52 0-124.032-284.736-96.768-284.736-224.192v-34.496h741.504v34.496c0 128.448-286.528 101.12-286.528 222.848v0zM805.696 350.528c0 8.576 0.128 18.048 0.256 28.096 10.368 11.328 34.176 40.576 43.584 80.32 9.6 4.416 17.664 14.016 22.72 27.328 7.040 18.816 7.616 44.736-6.144 61.568 0.064 0.32 0.128 0.512 0.192 0.832 2.56 23.552 9.472 86.208-28.288 127.232-21.76 23.616-54.336 42.304-96.704 43.392-42.432-1.152-74.944-19.776-96.704-43.392-37.76-41.024-30.848-103.68-28.352-127.232 0.064-0.32 0.064-0.512 0.128-0.832-13.888-16.768-13.312-42.688-6.272-61.504 5.056-13.376 13.056-22.912 22.656-27.328 9.408-39.808 33.024-68.992 43.392-80.32 0.128-10.048-0.192-18.496-0.192-27.072 0-35.456-30.528-54.656-68.672-69.952-33.6-13.504 54.080-22.784 115.968-52.608 55.104-26.496 83.584-74.496 83.584-74.496h217.152v26.24c0 97.792-218.304 76.992-218.304 169.728v0z" />
<glyph unicode="&#xe91d;" glyph-name="minus-circle" d="M512-64c-281.6 0-512 230.4-512 512s230.4 512 512 512 512-230.4 512-512-230.4-512-512-512v0 0zM512 896c-249.6 0-448-198.4-448-448s198.4-448 448-448 448 198.4 448 448-198.4 448-448 448v0 0zM256 492.8h512v-89.6h-512v89.6z" />
<glyph unicode="&#xe91e;" glyph-name="ok" d="M1024 708.992l-633.856-598.912-390.144 367.552 81.28 77.184 308.8-291.008 552.768 522.176 81.152-76.992z" />
<glyph unicode="&#xe91f;" glyph-name="ok-circle" d="M512-64c-281.6 0-512 230.4-512 512s230.4 512 512 512c281.664 0 512-230.4 512-512s-230.4-512-512-512v0 0zM512 896c-249.6 0-448-198.4-448-448s198.4-448 448-448c249.664 0 448 198.4 448 448s-198.4 448-448 448v0 0zM826.752 610.112l-389.632-371.968-239.872 228.288 49.92 47.936 189.888-180.736 339.84 324.288 49.856-47.808z" />
<glyph unicode="&#xe920;" glyph-name="pen" d="M992.256 884.288c-25.984 24.704-25.6 24.32-56.576 53.632-30.784 29.376-97.28 36.16-138.624-5.376-41.088-41.472-672.576-680.64-672.576-680.64s-118.080-273.536-124.736-288.896 6.4-30.016 21.312-23.616c14.912 6.528 299.52 125.632 299.52 125.632s620.224 624.704 671.68 676.416c51.328 51.776 25.856 118.144 0 142.848v0zM76.992 19.392l75.52 175.104 102.144-99.648-177.664-75.456zM309.184 126.4l-119.104 116.48 463.744 465.216 116.032-113.088-460.672-468.608zM815.616 638.72l-118.656 116.288 52.416 52.672 118.72-116.48-52.48-52.48zM950.464 771.52c-18.624-18.688-44.544-45.056-44.544-45.056l-123.2 119.168c0 0 26.752 26.368 45.952 45.376 19.328 19.008 57.472 17.6 77.184-1.152 19.392-18.688 20.672-19.776 41.664-40.576 25.152-24.896 21.376-59.072 2.944-77.76v0z" />
<glyph unicode="&#xe921;" glyph-name="plus-circle" d="M512-64c-281.6 0-512 230.4-512 512s230.4 512 512 512 512-230.4 512-512-230.4-512-512-512v0 0zM512 896c-249.6 0-448-198.4-448-448s198.4-448 448-448 448 198.4 448 448-198.4 448-448 448v0 0zM757.312 485.632h-196.992c-3.584 0-10.688 3.584-10.688 10.688v196.992c-0.064 3.52-3.584 10.688-10.816 10.688h-53.632c-3.648 0-10.752-3.584-10.752-10.688v-196.928c0-3.584-3.584-10.688-10.688-10.688h-197.056c-3.52-0.064-10.688-3.648-10.688-10.816v-53.696c0-3.584 3.584-10.752 10.688-10.752h196.992c3.584 0 10.688-3.584 10.688-10.688v-196.928c0.064-3.648 3.584-10.816 10.816-10.816h53.696c3.584 0 10.752 3.648 10.752 10.752v196.928c0 3.584 3.584 10.688 10.688 10.688h196.992c3.52 0.064 10.688 3.648 10.688 10.816v53.696c0 7.168-3.648 10.752-10.688 10.752v0z" />
<glyph unicode="&#xe922;" glyph-name="sidebar-product" d="M14.336 407.296c6.72-7.296 7.936-16.576 13.952-25.088 107.392-108.672 214.912-220.544 322.304-329.28 37.568-38.464 100.992-131.264 153.92-115.072 23.424 1.856 37.312 19.712 49.344 28.8 105.92 109.76 204.544 208.96 311.872 320 28.928 29.568 137.088 130.176 143.040 152.832 7.104 11.776 1.088 40.704 0 57.344-6.016 93.568-27.84 236.288-48.896 342.72-4.096 27.136-12.288 48.576-28.16 58.56-26.112 16.192-78.528 32.768-118.784 39.488-141.504 17.408-282.304 21.696-280.128 21.44-62.656 11.008-106.496-75.52-140.16-104.256-94.528-96.768-238.272-247.424-280.32-289.856s-114.944-103.232-97.984-157.632v0zM693.632 758.4c82.304 22.976 140.032-61.376 112.064-128.96-14.528-35.2-47.232-54.4-73.088-55.104-124.352-8.32-137.216 156.672-38.976 184.064v0z" />
<glyph unicode="&#xe923;" glyph-name="question" d="M512-64c-281.6 0-512 230.4-512 512s230.4 512 512 512c281.664 0 512-230.4 512-512s-230.4-512-512-512v0 0zM512 896c-249.6 0-448-198.4-448-448s198.4-448 448-448c249.664 0 448 198.4 448 448s-198.4 448-448 448v0 0zM509.376 291.968c-34.816 0-63.040-27.776-63.040-61.76 0-34.048 28.288-61.76 63.040-61.76 34.816 0 62.976 27.712 62.976 61.76s-28.288 61.76-62.976 61.76v0zM646.656 683.008c-33.6 29.696-78.656 44.48-135.36 44.48-53.888 0-97.408-14.656-130.624-43.904-33.152-29.184-52.48-69.504-53.568-106.752-1.088-37.184 87.36-29.44 90.56-11.072 3.456 19.456 17.984 50.816 34.88 65.088 16.896 14.208 37.888 21.376 62.976 21.376 25.984 0 46.784-6.848 62.080-20.48 15.36-13.76 23.104-30.144 23.104-49.28 0-13.696-4.416-26.432-13.12-37.888-5.504-7.232-22.784-22.592-51.52-46.016-28.8-23.36-48-44.416-57.6-63.168s-14.464-42.624-14.464-71.616c0-2.88 0.192-10.752 0.384-23.616h89.664c-0.448 27.2 1.92 46.016 6.912 56.448 5.056 10.624 17.984 24.576 38.784 41.856 40.256 33.472 66.432 59.904 78.848 79.296 12.224 19.456 18.432 40 18.304 61.824 0 39.36-16.704 73.792-50.24 103.424v0 0z" />
<glyph unicode="&#xe924;" glyph-name="remove" d="M1024 29.632l-96.384-93.632-424.384 406.592-410.048-406.592-93.184 93.76 421.952 418.24-421.952 418.304 93.184 93.696 410.048-406.656 424.384 406.592 96.384-93.696-436.544-418.304 436.544-418.304z" />
<glyph unicode="&#xe925;" glyph-name="required" d="M304.32 279.744l181.248 124.288-22.72-212.032h96.704l-22.592 212.032 182.656-124.288 48.384 80.512-203.904 89.216 203.904 89.216-48.384 78.976-182.656-125.76 22.592 212.096h-96.704l22.72-212.096-181.248 125.76-48.32-78.976 206.848-89.216-206.848-89.216z" />
<glyph unicode="&#xe926;" glyph-name="search" d="M969.6-58.496c-5.568 0-11.136 1.024-16.192 2.496-5.12 1.472-9.728 4.096-13.76 7.616l-5.632 4.608-295.744 289.6-4.544-3.136c-68.544-47.104-146.24-71.104-231.104-71.104-8.64 0-17.28 0.64-25.92 1.152s-17.28 1.984-25.92 3.52c-58.944 6.656-116.352 26.88-165.12 58.88-53.824 33.6-98.048 78.72-130.048 134.72-15.744 25.856-27.968 53.824-36.544 82.304-8.64 28.992-14.272 58.944-16.32 89.408-1.984 29.952 0 60.48 5.12 90.496 7.616 48.768 24.896 94.528 51.264 136.128 25.984 42.112 59.52 78.208 100.16 107.712 34.048 26.432 72.64 46.784 114.752 60.992 41.728 14.144 85.44 21.312 129.6 21.312 18.752 0 36.544-1.024 53.312-3.584 45.696-6.080 89.408-19.84 131.072-40.64 41.216-20.864 78.272-47.744 109.248-81.344 36.032-37.12 64.064-80.768 83.264-131.072 18.816-50.304 27.52-102.080 24.96-153.408-3.008-86.4-33.984-165.184-92.032-233.792l-4.032-4.48 294.208-287.104v-4.992h3.584c7.040-9.152 10.688-18.24 10.688-28.992 0-12.608-4.608-23.36-13.76-32.512-8.704-8.64-20.352-13.76-32.96-13.76l-1.6-1.024zM363.456 907.904c-4.032 0-7.552-0.512-11.648-1.536l-6.592-1.024c-50.816-7.616-100.608-26.944-142.784-55.936-42.688-27.968-78.72-66.048-104.128-109.696-29.44-47.232-45.76-101.12-48.832-159.040-3.008-58.432 8.192-113.28 33.088-163.072 20.8-44.736 52.288-85.44 90.88-117.312 38.656-32.128 84.352-56 133.12-69.12 32-8.64 64-13.12 96.064-13.12 19.776 0 39.552 1.344 59.456 4.992 27.392 4.48 54.336 12.736 79.744 23.36 25.344 10.624 49.28 24.384 71.68 40.64s42.112 34.624 60.416 54.848c17.728 20.736 33.088 43.2 45.184 67.584 22.848 43.2 35.072 89.92 37.696 138.24 2.496 47.744-5.632 96.512-24.512 140.736-10.624 27.456-24.32 53.312-42.112 77.248-17.728 23.872-38.656 45.696-61.952 65.024-23.424 18.688-49.28 34.944-76.736 47.232-45.696 20.736-97.024 31.424-147.328 31.424-13.696 0.512-26.944 0-40.704-1.472v0z" />
<glyph unicode="&#xe927;" glyph-name="star" d="M1023.168 570.176c-2.304 7.296-8.768 12.16-16.064 12.16h-366.016l-113.152 365.504c-2.24 7.232-8.704 12.16-15.936 12.16s-13.696-4.928-16-12.16l-113.152-365.504h-366.080c-7.296 0-13.696-4.928-16-12.16-2.24-7.296 0.192-15.232 6.080-19.712l296.128-225.856-113.088-365.504c-2.24-7.232 0.192-15.232 6.080-19.776 3.008-2.176 6.528-3.328 9.92-3.328 3.456 0 6.912 1.152 9.856 3.392l296.256 225.92 296.128-225.92c5.888-4.48 13.888-4.48 19.776 0s8.32 12.48 6.144 19.776l-113.152 365.504 296.192 225.856c5.76 4.416 8.256 12.288 6.080 19.648v0z" />
<glyph unicode="&#xe928;" glyph-name="stocks" d="M709.376 960c-46.656 0-98.112-19.648-139.136-57.216-70.4-64.64-111.488-183.808-56.704-234.048 17.664-16.192 43.072-23.232 71.808-23.232 60.544 0 135.68 31.424 183.488 75.264 70.4 64.576 83.136 157.76 28.288 208-22.912 21.056-54.080 31.232-87.744 31.232v0 0 0zM709.376 883.776v0c8.704 0 24.768-1.408 34.944-10.816 2.368-2.112 9.408-8.64 9.408-24.64 0-17.984-9.92-46.336-37.76-71.872-34.112-31.232-90.304-54.848-130.688-54.848-11.712 0-17.152 2.112-18.112 2.112-0.064 0-0.128 0-0.128 0-7.424 15.040 8.96 80.128 56.064 123.328 25.024 23.040 57.344 36.736 86.272 36.736v0zM313.92 960c-33.6 0-64.768-10.176-87.68-31.232-54.72-50.24-41.984-143.424 28.416-208 47.744-43.84 122.88-75.264 183.424-75.264 28.736 0 54.144 7.040 71.744 23.232 54.848 50.24 13.696 169.408-56.704 234.048-41.024 37.568-92.48 57.216-139.2 57.216v0 0 0zM313.92 883.776c28.992 0 61.248-13.76 86.4-36.736 47.424-43.52 63.68-109.248 57.088-122.24-0.064 0-5.12-3.136-19.392-3.136-40.448 0-96.576 23.616-130.624 54.848-27.84 25.536-37.76 53.888-37.76 71.872 0 16 7.040 22.528 9.408 24.64 10.24 9.408 26.24 10.752 34.88 10.752v0zM938.688 608.128c0 41.088-15.168 67.456-56.896 67.456h-341.376v-341.376h398.208v273.92h0.064zM540.416 277.312v-341.312h341.312c41.728 0 56.896 15.808 56.896 56.896v284.48l-398.208-0.064zM483.584 334.208v341.376l-322.432 7.232c-41.728 0-75.84-33.6-75.84-74.688v-273.92h398.272zM85.312 272.064v-261.376c0-41.088 34.112-74.688 75.84-74.688h322.368v341.312l-398.208-5.248z" />
<glyph unicode="&#xe929;" glyph-name="sidebar-store" d="M585.28 136.384h23.040v-3.968h-23.040v3.968zM686.592 160.96h5.696v-18.432h-5.696v18.432zM422.208 151.552h-17.792c-0.064-0.064-0.128-0.128-0.192-0.192 2.24-2.88 5.056-5.184 8.448-7.040 3.968 2.112 7.168 4.544 9.536 7.232v0zM433.216 160.704h-42.112v-43.136h42.112v43.136zM424.576 119.552c-8.512 1.856-17.6 3.52-27.328 4.864l1.216 3.968c9.6-1.28 18.816-2.752 27.712-4.416l-1.6-4.416zM403.264 132.032l1.152 3.84c5.632-0.832 11.584-1.792 17.792-2.88l-1.216-4.032c-6.272 1.28-12.224 2.304-17.728 3.072v0zM430.080 134.976c-6.784 1.536-12.544 3.328-17.28 5.248-4.672-2.112-10.944-4.16-18.688-6.208-0.512 1.28-1.216 2.496-1.984 3.712 6.72 1.408 12.288 2.944 16.704 4.736-2.688 1.856-5.056 4.032-6.976 6.4-1.792-1.728-3.84-3.456-5.952-5.12-0.768 0.832-1.728 1.728-2.816 2.816 5.248 3.776 9.6 8.256 12.928 13.44l3.776-1.792c-0.704-1.024-1.472-2.112-2.304-3.136h20.352v-3.392c-2.816-3.392-6.4-6.464-10.816-9.216 4.032-1.344 9.024-2.432 14.848-3.2-0.768-1.664-1.408-3.136-1.792-4.288v0zM704.576 161.088h5.76v-18.56h-5.76v18.56zM585.28 128.832h23.040v-3.968h-23.040v3.968zM896 328.448c-58.304 0-108.288 35.392-128.704 85.44-20.16-49.984-69.632-85.44-127.296-85.44s-107.136 35.392-127.296 85.44c-20.416-49.984-70.4-85.44-128.704-85.44-57.664 0-107.136 35.392-127.296 85.44-20.416-49.984-70.4-85.44-128.704-85.44-13.76 0-27.008 2.048-39.488 5.824v-283.2c0-26.304 29.248-58.496 55.616-58.496h735.808c26.304 0 55.552 32.192 55.552 58.496v283.072c-12.544-3.648-25.792-5.696-39.488-5.696v0zM933.312 776.704h-845.568l-87.744-229.696c0-68.736 57.024-125.824 127.296-125.824 70.208 0.064 128.704 55.616 128.704 125.824 0-68.736 57.024-125.824 127.296-125.824 70.208 0.064 128.704 55.616 128.704 125.824 0-68.736 57.024-125.824 127.296-125.824 70.208 0 127.296 55.616 127.296 125.824 0-68.736 57.024-125.824 128.704-125.824 70.208 0.064 128.704 55.616 128.704 125.824l-90.688 229.696zM892.352 778.176v0 0zM146.304 815.68h731.456c24.896 0 43.904 19.008 43.904 43.904s-19.008 43.904-43.904 43.904h-731.456c-24.896-0.064-43.904-19.072-43.904-43.904s19.008-43.904 43.904-43.904v0 0z" />
<glyph unicode="&#xe92a;" glyph-name="sidebar-system" d="M984.64 526.784h-47.296c-21.696 0-44.608 16.896-51.072 37.696l-27.136 65.92c-10.304 19.136-6.080 47.232 9.152 62.592l33.6 33.472c15.36 15.36 15.36 40.448 0 55.744l-55.744 55.68c-15.296 15.296-40.384 15.296-55.744 0l-33.536-33.472c-15.296-15.36-43.456-19.52-62.592-9.28l-65.856 27.072c-20.608 6.4-37.632 29.44-37.632 51.072v47.296c0 21.632-17.792 39.424-39.36 39.424h-78.72c-21.76 0-39.488-17.792-39.488-39.424v-47.296c0-21.632-16.896-44.672-37.632-51.072l-65.92-27.136c-19.136-10.24-47.232-6.080-62.528 9.28l-33.6 33.472c-15.296 15.296-40.384 15.296-55.68 0l-55.68-55.68c-15.296-15.296-15.296-40.384 0-55.68l33.472-33.536c15.36-15.36 19.584-43.456 9.28-62.592l-27.2-65.984c-6.4-20.672-29.312-37.632-51.072-37.632h-47.232c-21.696 0.064-39.424-17.664-39.424-39.36v-78.72c0-21.696 17.728-39.424 39.424-39.424h47.232c21.696-0.064 44.608-16.96 51.008-37.632l27.2-65.92c10.176-19.136 6.080-47.36-9.28-62.656l-33.536-33.472c-15.232-15.36-15.232-40.384 0-55.744l55.744-55.744c15.296-15.296 40.384-15.296 55.68 0l33.6 33.536c15.232 15.232 43.392 19.456 62.4 9.088l66.048-27.136c20.736-6.464 37.632-29.376 37.632-51.072v-47.168c0.064-21.568 17.728-39.296 39.488-39.296h78.72c21.568 0 39.36 17.728 39.36 39.36v47.168c0 21.696 17.024 44.608 37.632 51.072l65.984 27.136c19.072 10.368 47.296 6.144 62.592-9.088l33.408-33.536c15.36-15.296 40.448-15.296 55.744 0l55.744 55.744c15.36 15.36 15.36 40.384 0 55.744l-33.6 33.472c-15.232 15.296-19.456 43.456-9.152 62.656l27.136 65.92c6.464 20.672 29.504 37.568 51.072 37.568h47.296c21.696-0.064 39.424 17.664 39.424 39.36v78.784c0 21.696-17.728 39.424-39.36 39.424v0zM708.992 448c0-108.736-88.128-196.864-196.864-196.864-108.8 0-196.928 88.128-196.928 196.864 0 108.8 88.128 196.928 196.928 196.928s196.864-88.128 196.864-196.928v0z" />
<glyph unicode="&#xe92b;" glyph-name="sidebar-trade" d="M0.128 761.152c42.816-14.4 85.312-30.080 128.704-42.496 24.384-6.976 48.64-0.704 70.592 13.248 44.8 28.416 91.008 54.080 141.12 72.064 42.944 15.552 83.712 11.584 121.984-14.144 4.864-3.264 8.96-7.552 14.272-12.096-21.568-12.032-42.112-23.040-62.208-34.688-24.128-14.144-48.384-28.288-71.808-43.52-42.816-27.84-59.52-76.032-43.072-121.664 15.424-42.688 61.76-73.536 102.592-66.816 13.568 2.304 27.136 6.976 39.808 12.416 32.64 14.144 64.768 29.376 97.152 44.224 31.36 14.272 56.192 9.728 80.896-14.848 62.912-62.912 125.824-125.696 188.864-188.608 18.944-18.944 20.096-47.104 2.432-65.344-18.112-18.56-46.208-17.536-66.048 2.112-20.416 20.096-40.64 40.384-61.376 60.224-4.16 3.968-8.576 12.672-15.808 6.144-1.6-1.408 2.304-11.392 6.016-15.424 18.944-20.992 38.656-41.216 58.368-61.76 23.552-24.384 18.56-60.928-10.112-74.88-18.24-8.832-38.656-3.968-54.528 11.84-24.96 24.96-50.24 49.664-75.584 74.176-3.264 3.136-7.68 5.12-12.864 8.576-2.304-11.264 3.968-16.704 8.832-21.952 18.688-20.288 37.952-40.256 57.088-60.224 8.576-8.96 14.528-18.816 14.848-31.68 0.448-19.264-9.728-35.52-26.816-42.944-17.536-7.552-36.672-3.136-50.368 10.816-21.696 22.144-43.52 44.224-65.344 66.176-3.584 3.584-7.296 6.976-11.392 9.536-2.304 1.408-5.696 1.024-8.704 1.28 0-3.008-0.832-6.592 0.256-8.96 1.856-3.84 4.992-7.104 8-10.24 16.96-17.856 34.496-35.264 51.072-53.504 14.528-16 15.424-39.36 3.136-56.064-15.296-20.672-44.8-24.512-64.512-7.552-8.704 7.68-16.576 16.384-24.256 25.088-1.6 1.728-1.856 5.44-1.6 8 4.736 48.768-20.096 89.728-64.896 108.16-3.584 1.408-7.296 5.568-8.576 9.408-10.56 29.952-29.952 51.328-59.328 63.744-3.584 1.6-7.296 5.76-8.704 9.344-10.816 27.968-29.504 47.616-57.344 59.2-3.712 1.6-7.68 5.44-8.96 9.152-18.944 52.928-72.192 76.032-125.824 63.36-37.696-9.024-63.68-31.872-78.656-67.52-0.448-0.832-0.832-1.728-1.408-2.56-0.448-0.576-0.832-1.024-1.856-2.048-17.856 6.144-36.096 12.608-54.208 18.88 0.128 118.4 0.128 236.352 0.128 354.368v0 0zM1024 417.344c-35.648-6.592-71.168-13.824-107.136-19.136-25.088-3.712-46.912 4.864-65.344 23.104-68.928 68.352-138.112 136.256-206.848 204.416-20.992 20.864-45.504 25.664-71.488 13.696-39.488-18.368-77.888-39.040-116.672-58.88-11.84-6.016-23.552-12.416-35.392-18.432-28.8-14.528-62.784-3.712-78.016 24.832-14.848 27.84-4.864 62.208 22.976 77.888 81.152 45.76 162.368 91.456 243.52 137.216 0.256 0.128 0.576 0.32 0.832 0.576 34.688 22.656 67.2 18.24 97.984-7.872 34.496-29.248 69.312-58.496 103.744-87.872 16.96-14.4 36.096-19.136 57.6-14.4 48.512 10.56 96.896 21.248 145.216 31.68 2.88 0.576 5.824 0.704 8.832 1.024 0.192-102.72 0.192-205.312 0.192-307.84v0 0zM304.448 161.664c-10.112-2.688-18.688-5.568-27.392-7.104-13.952-2.56-28.096-3.008-39.808 7.104-12.992 11.264-17.856 25.28-12.416 42.24 2.56 8.128 5.44 16.128 8.576 25.664-10.432-2.688-19.264-5.12-28.096-6.976-32.128-6.592-56.768 21.12-46.528 52.224 2.432 7.296 5.12 14.4 8.256 23.552-6.272-1.6-11.392-2.432-16.128-4.16-45.504-16-68.48 21.952-60.8 55.36 7.616 33.088 35.136 61.76 66.688 66.304 36.672 5.248 66.496-24.832 60.608-61.184-0.448-2.56-0.832-5.12-1.6-9.28 20.288 2.88 39.104 1.28 54.080-13.696 15.232-15.104 16-34.112 12.544-54.784 21.696 1.984 41.536 0.576 56.32-16.96 14.4-17.088 14.976-36.8 8.832-57.792 8 0.704 14.848 2.112 21.696 1.984 36.352-1.024 59.776-33.792 50.24-69.888-10.24-38.4-64.512-66.048-101.44-51.776-21.568 8.256-31.68 28.672-24.704 50.944 2.816 8.832 6.912 17.536 11.072 28.224v0 0z" />
<glyph unicode="&#xe92c;" glyph-name="triangle-down" d="M0 720h1024l-512-554.688-512 554.688z" />
<glyph unicode="&#xe92d;" glyph-name="triangle-up" d="M0 165.312h1024l-512 554.688-512-554.688z" />
<glyph unicode="&#xe92e;" glyph-name="sidebar-user" d="M0 639.936l3.264 9.28c8.448 25.216 30.528 42.112 57.344 43.968 24.512 1.792 49.024-12.544 60.544-35.072 11.776-23.040 8.448-50.112-8.576-70.272-1.984-2.24-3.968-4.48-6.208-7.040 47.552-29.12 94.784-57.856 141.824-86.784 17.856-11.008 35.776-22.080 53.632-32.704 10.176-5.952 18.048-4.224 23.552 5.76 54.080 98.56 108.16 197.184 162.688 296.768-23.552 11.904-38.848 30.208-40.256 57.28-0.96 19.008 5.76 35.328 19.264 48.576 26.752 26.048 70.592 23.552 94.080-5.312 27.008-33.088 17.216-71.808-25.6-100.864 13.952-25.6 28.032-51.264 42.24-76.8 39.296-71.552 78.336-142.848 117.632-214.4 9.024-16.512 14.784-18.048 30.976-8.448 60.736 37.056 121.408 74.368 182.144 111.552 2.816 1.728 5.504 3.52 8.768 5.504-12.544 12.544-20.544 26.752-21.44 44.224-1.792 32.704 20.736 61.376 52.288 66.752 32.832 5.76 63.36-12.992 73.088-44.8 0.768-2.496 1.792-5.12 2.752-7.552v-22.080c-10.304-33.088-31.552-52.288-68.032-52.544-1.28-3.776-2.688-7.488-3.776-11.264-35.52-121.856-71.104-243.968-106.624-365.824-4.544-15.936-10.176-20.032-26.24-20.032h-613.824c-17.216 0-22.528 3.968-27.2 20.032-28.992 98.88-57.6 198.144-86.592 297.024-7.744 26.688-15.68 53.44-23.552 80.32-27.2 0-47.744 10.816-60.544 34.24-3.072 5.76-5.056 12.224-7.488 18.304-0.128 7.616-0.128 14.912-0.128 22.208v0 0zM511.744 104h286.784c25.536 0 45.952-18.048 48.768-42.368 2.816-24.512-13.248-46.784-38.016-52.288-3.52-0.96-7.296-1.024-10.816-1.024h-573.696c-21.824 0-40.256 12.992-46.592 32.704-6.592 19.712-0.448 41.984 17.024 53.248 9.024 5.76 20.992 9.728 31.552 9.728 95.104 0.448 190.144 0 284.992 0v0 0 0z" />
<glyph unicode="&#xe92f;" glyph-name="not-data" d="M1011.661 842.257c0 7.509 0 15.036-0.427 22.528-2.987 50.261-50.483 95.181-100.864 95.198-133.939 0.051-267.844 0.017-401.783 0.017v-0.324c-135.202 0-270.387 0.068-405.589-0.034-55.211-0.051-102.81-48.452-102.195-103.424 0.222-20.019 0.444-40.055 0.444-60.075-0.085-186.487 1.417-372.992-1.246-559.462-0.956-67.755 58.88-117.555 113.476-111.957 21.675 2.202 43.759 0.256 65.673 0.171 8.346 0 14.694-0.597 12.407-12.578-3.243-16.879-5.222-34.082-6.383-51.285-1.297-18.961 9.745-32.58 21.538-46.080 6.11-7.014 10.189-16.077 14.063-24.73 2.219-4.966 0.717-11.913 3.55-16.196 2.901-4.437 8.909-8.892 13.824-9.199 3.191-0.205 10.274 7.595 9.728 10.837-3.857 23.023 8.687 31.3 28.228 34.918 4.147 0.802 7.919 3.635 11.793 5.7 45.841 24.405 82.432 60.126 118.955 96.171 6.042 5.99 15.65 11.469 23.74 11.725 44.407 1.263 88.866 1.348 133.291 0.461 8.226-0.205 17.749-5.052 24.286-10.598 23.774-20.173 45.841-42.394 69.803-62.276 24.576-20.326 51.217-38.025 82.039-47.735 23.347-7.373 23.125-6.758 21.504-31.386-0.307-4.591 2.679-11.588 6.263-13.534 3.977-2.202 12.663-1.86 15.292 1.041 3.601 3.908 3.55 11.264 4.779 17.203 2.441 11.435 0.802 26.573 7.612 33.741 27.699 29.184 27.989 62.601 19.319 97.741-3.567 14.37 1.553 16.162 13.602 15.923 25.020-0.461 50.108 1.075 75.059-0.171 58.419-2.816 109.756 53.487 109.124 111.292-2.253 202.086-0.905 404.224-0.905 606.379v0zM301.483 53.385c-13.090-9.95-29.065-17.050-44.783-22.391-25.412-8.721-45.466 5.973-47.821 32.853-0.324 3.755-0.051 7.475-0.051 11.23 0.205 33.655 18.381 58.778 40.038 81.664 27.085 28.638 61.611 46.711 97.502 61.013 32.273 12.902 65.98 22.187 99.209 32.58 5.086 1.587 11.059 1.212 16.503 0.631 10.752-1.161 14.046-7.697 9.438-17.135-5.461-11.179-10.411-23.057-17.971-32.734-43.895-56.132-95.488-104.687-152.064-147.712v0zM451.447 158.874c17.050 25.446 31.505 47.036 46.251 69.018 15.326-22.306 29.901-43.571 47.377-69.018h-93.628zM791.296 47.991c-8.772-19.354-25.429-25.719-45.961-19.115-32.836 10.598-59.597 30.839-84.582 53.316-31.437 28.365-62.669 57.156-91.989 87.706-16.196 16.879-29.696 36.813-41.882 56.934-10.121 16.725-2.901 25.958 17.186 26.88 22.818-6.127 45.909-11.349 68.369-18.551 38.076-12.22 75.435-26.658 108.476-49.664 30.959-21.623 58.061-47.036 69.888-84.702 5.513-17.51 8.499-35.106 0.495-52.804v0zM980.77 524.561c-0.034-96.358-0.29-192.717-0.444-289.075-0.034-34.833-14.95-60.621-48.316-72.363-13.193-4.625-28.194-5.308-42.411-5.427-30.464-0.29-60.962 0.375-91.392 1.894-7.236 0.358-15.94 3.789-21.060 8.755-61.594 59.836-138.223 87.859-220.16 103.902-18.022 3.499-37.547 4.215-53.282-10.701-2.185-2.082-10.342-1.417-12.937 1.041-14.814 13.824-33.246 13.278-49.783 9.506-76.732-17.545-151.091-41.66-206.95-101.222-16.538-17.579-35.686-11.981-53.777-13.295-24.747-1.758-49.783 0.683-74.684 1.229-43.145 0.922-72.619 30.345-72.67 73.353-0.154 103.27-0.051 206.524-0.051 309.76-0.034 0-0.051 0-0.102 0 0 103.219 0.939 206.455-0.461 309.658-0.529 39.936 34.884 76.083 70.298 74.94 35.567-1.126 71.219-0.119 106.837 0 91.819 0.324 183.654 0.956 275.473 0.922 115.661-0.034 231.287-0.614 346.982-0.973 24.969-0.085 49.937 0.017 74.906-0.358 43.127-0.717 73.574-30.976 73.745-74.837 0.41-108.919 0.29-217.805 0.239-326.707v0zM833.502 668.911c-29.184 25.242-63.113 42.274-99.703 52.958-20.753 6.059-42.82 8.055-64.427 10.308-4.898 0.512-10.462-5.513-15.77-8.533 4.693-3.857 8.841-8.96 14.217-11.247 6.946-2.987 14.899-3.721 22.391-5.444 0-1.707 0-3.413 0-5.103-5.547-3.874-11.042-7.834-16.657-11.622-39.322-26.47-55.603-79.991-37.171-122.249 24.576-56.439 75.503-76.971 130.867-57.668 47.275 16.486 71.322 51.661 66.253 108.186-0.717 7.799-1.468 12.373 8.192 14.916 14.097 3.669 15.377 9.301 6.263 20.958-4.181 5.342-9.267 10.069-14.455 14.541v0zM655.838 631.876c0.495 9.506 11.708 20.275 21.299 20.463 11.657 0.222 21.299-9.523 21.299-21.436 0-12.715-8.311-20.787-21.436-20.77-10.701 0-21.726 11.315-21.163 21.743v0zM691.063 535.518c-13.978 0.222-26.863 14.899-26.829 30.618 0 15.275 13.773 28.706 28.86 28.228 13.619-0.444 26.573-14.336 26.658-28.621 0.119-17.101-12.578-30.447-28.689-30.225v0zM764.979 558.558c-23.142 0.717-42.854 23.228-42.257 48.35 0.58 25.344 24.030 47.411 49.289 46.353 22.818-0.956 44.885-25.532 44.476-49.527-0.461-26.726-22.528-46.063-51.507-45.175v0zM311.945 696.747c-4.727 3.294-9.455 6.622-12.066 8.448 8.448 8.687 20.599 16.606 19.439 20.907-3.43 12.476-16.299 6.212-25.617 6.707-0.614 0.017-1.246-0.119-1.86-0.171-44.595-3.567-81.937-25.003-117.504-49.51-13.158-9.062-24.439-21.316-34.953-33.536-9.762-11.383-7.134-18.756 7.151-20.173 12.032-1.195 11.844-6.929 11.81-16.145-0.085-38.81 17.084-68.335 50.756-87.518 31.59-18.005 63.846-19.388 96.068-1.075 67.686 38.468 71.168 127.266 6.775 172.066v0zM183.347 636.331c-1.57 9.574 10.854 22.204 20.719 22.135 10.035-0.068 19.251-9.847 19.575-20.77 0.393-12.715-6.485-19.951-18.79-20.002-12.646-0.068-19.593 6.929-21.504 18.637v0zM218.692 544.358c-14.097-0.068-28.979 14.95-28.723 29.030 0.273 16.026 12.646 26.931 29.969 26.368 16.367-0.495 25.822-10.889 25.583-28.058-0.222-16.265-11.042-27.273-26.829-27.341v0zM293.905 565.504c-24.457-0.119-45.141 20.326-45.414 44.954-0.324 25.856 19.883 48.674 44.612 48.009 27.904-0.734 45.67-18.705 47.514-48.026 1.28-20.668-23.159-46.199-46.711-44.937v0zM498.125 407.74c-42.342-0.683-71.407-18.654-94.839-45.995-5.001-5.837-4.181-16.623-6.025-25.156 7.543 1.417 15.309 2.082 22.579 4.318 21.862 6.793 43.093 17.271 65.451 20.617 29.679 4.471 57.446-6.212 83.302-21.385 4.489-2.662 10.786-2.27 16.247-3.26-0.887 5.769 0.102 12.834-2.85 17.203-21.111 31.437-48.486 53.214-83.866 53.658v0zM753.34 473.207c-2.697-1.826-8.158-1.911-11.281-0.478-23.518 10.65-32.785 8.806-50.33-11.81h82.295c0.324 1.724 0.631 3.482 0.956 5.239-5.205 7.475-10.086 14.916-21.641 7.049v0zM237.329 482.27c-4.352-1.178-7.765-5.837-11.605-8.909 4.198-1.69 8.499-4.983 12.578-4.762 13.534 0.717 27.017 2.731 40.516 4.233 0.034-0.324 0.085-0.666 0.119-1.007 1.86-0.102 3.738-0.495 5.564-0.273 4.215 0.495 8.397 1.263 12.595 1.946-3.772 2.697-7.543 5.427-11.298 8.141-15.974 11.52-32.393 5.069-48.469 0.631v0z" />
<glyph unicode="&#xe930;" glyph-name="loading" d="M782.319 58.436c10.94-18.432 4.745-43.008-14.251-53.367-18.756-10.94-42.496-4.437-53.129 14.302-11.503 18.449-4.745 42.445 13.636 53.385 19.354 10.803 42.854 4.113 53.743-14.319v0 0 0zM551.561-24.866v0c0-21.316-17.596-39.134-39.731-39.134-21.282 0-39.117 17.374-39.117 39.134v27.375c0 21.811 17.903 39.185 39.117 39.185 21.845 0 39.731-17.323 39.731-39.185v-27.375zM309.914 19.251v0c-11.127-19.251-35.191-25.378-53.726-14.507-18.961 10.684-25.754 34.611-14.524 53.692l29.133 50.927c11.247 18.773 35.277 25.207 54.289 14.507 18.432-10.871 25.225-35.226 13.995-53.692l-29.167-50.927zM122.436 177.493v0c-18.961-10.564-43.349-4.181-53.709 14.575-11.145 18.432-4.779 42.752 13.995 53.692l78.319 45.312c18.756 10.359 43.025 4.506 53.709-14.507 10.633-18.432 4.164-42.82-14.541-53.743l-77.773-45.329zM39.117 408.747v0c-21.828 0-39.117 17.562-39.117 39.134 0 21.811 17.289 39.373 39.117 39.373h121.958c21.845 0 39.117-17.562 39.117-39.117 0-21.811-17.289-39.373-39.117-39.373l-121.958-0.017zM82.79 650.564v0c-19.063 10.615-25.225 34.611-13.995 53.367 10.377 18.995 34.679 25.446 53.743 14.575l132.506-76.937c18.756-10.633 24.9-34.628 14.541-53.129-11.162-18.995-35.226-25.122-53.658-14.507l-133.137 76.629zM241.664 837.871v0l92.314-160.188c11.213-18.756 35.277-25.429 53.965-14.302 18.756 10.633 24.9 35.004 13.995 53.743l-92.621 159.812c-10.633 18.5-34.697 25.19-53.129 14.319-19.063-10.94-25.225-34.935-14.524-53.385v0 0 0zM472.713 920.559v0c0 21.316 17.92 39.441 39.134 39.441 21.845 0 39.731-17.681 39.731-39.441v-184.508c0-21.811-17.596-39.39-39.731-39.697-21.282 0-39.117 17.254-39.117 39.697v184.508h-0.017zM714.359 876.937v0c11.196 18.995 34.953 25.19 53.76 14.575 18.927-10.633 25.737-34.679 14.507-53.743l-92.57-160.119c-10.428-18.688-35.004-25.378-53.692-14.558-18.807 10.94-24.934 35.311-14.302 54.050l92.297 159.795zM902.434 718.507v0l-160.614-92.501c-18.756-10.633-25.19-34.679-14.507-53.692 11.11-18.449 35.191-24.627 53.743-14.319l160.495 92.501c18.5 10.633 25.242 34.628 13.995 53.367-10.615 19.063-34.731 25.822-53.111 14.643v0 0 0zM984.866 487.253v0c22.067 0 39.458-17.562 39.134-39.373 0-21.555-17.067-39.117-39.134-39.117h-184.866c-21.316 0-39.185 17.562-39.185 39.373 0 21.555 17.869 39.117 39.185 39.117h184.866z" />
<glyph unicode="&#xe931;" glyph-name="list" d="M966.773 408.724h-699.567c-19.758 2.397-34.918 19.066-34.918 39.276s15.159 36.879 34.727 39.257l0.19 0.019h699.567c19.758-2.397 34.918-19.066 34.918-39.276s-15.159-36.879-34.727-39.257l-0.19-0.019zM966.773 723.040h-699.567c-19.758 2.397-34.918 19.066-34.918 39.276s15.159 36.879 34.727 39.257l0.19 0.019h699.567c19.758-2.397 34.918-19.066 34.918-39.276s-15.159-36.879-34.727-39.257l-0.19-0.019zM70.827 94.409c-1.812-0.212-3.911-0.332-6.038-0.332-30.374 0-54.997 24.623-54.997 54.997s24.623 54.997 54.997 54.997c30.374 0 54.997-24.623 54.997-54.997 0-0.094 0-0.187-0.001-0.28v0.014c0.041-0.771 0.064-1.674 0.064-2.582 0-27.651-21.625-50.251-48.885-51.81l-0.138-0.006zM70.827 366.402c-1.812-0.212-3.911-0.332-6.038-0.332-30.374 0-54.997 24.623-54.997 54.997s24.623 54.997 54.997 54.997c30.374 0 54.997-24.623 54.997-54.997 0-0.094 0-0.187-0.001-0.28v0.014c0.050-0.852 0.078-1.849 0.078-2.853 0-27.656-21.633-50.259-48.9-51.811l-0.137-0.006zM70.827 692.794c-1.812-0.212-3.911-0.332-6.038-0.332-30.374 0-54.997 24.623-54.997 54.997s24.623 54.997 54.997 54.997c30.374 0 54.997-24.623 54.997-54.997 0-0.094 0-0.187-0.001-0.28v0.014c0.060-0.934 0.094-2.025 0.094-3.124 0-27.661-21.641-50.268-48.916-51.812l-0.137-0.006zM267.206 173.504h699.567c19.758-2.397 34.918-19.066 34.918-39.276s-15.159-36.879-34.727-39.257l-0.19-0.019h-699.567c-18.85 3.246-33.011 19.471-33.011 39.004s14.16 35.758 32.776 38.97l0.235 0.034z" />
<glyph unicode="&#xe932;" glyph-name="view" d="M784 480.704c-72.32 0-240 1.6-240 1.6s0.64 178.304 0.64 238.080c0 132.372 107.309 239.68 239.68 239.68s239.68-107.308 239.68-239.68c0-132.372-107.308-239.68-239.68-239.68-0.113 0-0.225 0-0.337 0h0.017zM788.48 888.384c-0.168 0.001-0.366 0.001-0.564 0.001-93.969 0-171.045-72.328-178.594-164.35l-0.042-0.643c0-36.224 0.64-177.664 0.64-177.664s128-0.512 178.56-0.512c92.455 6.125 165.128 82.618 165.128 176.084 0 0.578-0.003 1.155-0.008 1.731l0.001-0.088c0 0 0 0 0 0 0 91.258-73.888 165.258-165.103 165.44h-0.017zM239.36-64c-132.372 0-239.68 107.308-239.68 239.68s107.308 239.68 239.68 239.68v0c72.96 0 240.64-1.6 240.64-1.6s-0.64-178.304-0.64-238.080c-0.109-132.395-107.462-239.68-239.872-239.68-0.045 0-0.090 0-0.135 0h0.007zM414.72 172.8c0 36.224-0.64 177.664-0.64 177.664s-128 0.448-178.56 0.448c-92.454-6.125-165.127-82.618-165.127-176.084 0-0.555 0.003-1.11 0.008-1.664l-0.001 0.085c0 0 0 0 0 0 0-91.27 73.88-165.285 165.099-165.504h0.021c0.166-0.001 0.362-0.001 0.559-0.001 93.992 0 171.082 72.363 178.599 164.417l0.042 0.64zM0 720.512c0 132.372 107.308 239.68 239.68 239.68s239.68-107.308 239.68-239.68v0c0-59.776 0.64-238.080 0.64-238.080s-167.68-1.6-240.64-1.6c-132.175 0.219-239.251 107.363-239.36 239.542v0.010zM414.72 723.52v0c-7.591 92.665-84.667 164.993-178.636 164.993-0.198 0-0.396 0-0.595-0.001h0.031c-91.232-0.182-165.12-74.182-165.12-165.44 0 0 0 0 0 0v0c-0.005-0.488-0.008-1.066-0.008-1.644 0-93.467 72.673-169.959 164.596-176.056l0.532-0.028c50.56 0 178.56 0.512 178.56 0.512s0.64 141.312 0.64 177.344zM1024 175.808c0-132.372-107.308-239.68-239.68-239.68s-239.68 107.308-239.68 239.68v0c0 59.776-0.64 238.080-0.64 238.080s167.68 1.6 240 1.6c0.038 0 0.083 0 0.128 0 132.455 0 239.835-107.358 239.872-239.804v-0.004zM609.28 174.592v-1.792c7.559-92.694 84.649-165.057 178.641-165.057 0.197 0 0.393 0 0.589 0.001h-0.030c91.24 0.218 165.12 74.233 165.12 165.504 0 0 0 0 0 0v0c0.005 0.469 0.007 1.024 0.007 1.58 0 93.466-72.673 169.959-164.595 176.056l-0.532 0.028c-50.56 0-178.56-0.448-178.56-0.448s-0.64-141.44-0.64-177.664v1.792z" />
<glyph unicode="&#xe933;" glyph-name="address" d="M511.73-63.501c-60.987-0.416-366.543 479.239-366.543 639.818-0.265 5.215-0.416 11.324-0.416 17.468 0 202.666 164.293 366.959 366.959 366.959s366.959-164.293 366.959-366.959c0-6.144-0.151-12.253-0.449-18.322l0.033 0.854c0.083-158.498-306.555-640.234-366.543-639.818zM511.73 896.226c-169.614-4.074-305.555-142.537-305.555-312.752 0-2.517 0.030-5.026 0.089-7.529l-0.007 0.372c0-133.954 254.679-544.137 305.474-544.137 49.921 0 305.432 412.262 305.432 544.137 0.052 2.131 0.082 4.641 0.082 7.158 0 170.2-135.918 308.655-305.134 312.744l-0.38 0.007zM511.73 416.155c-2.273-0.115-4.935-0.181-7.613-0.181-88.547 0-160.329 71.782-160.329 160.329s71.782 160.329 160.329 160.329c88.542 0 160.321-71.773 160.329-160.314v-0.001c0.024-1.031 0.038-2.245 0.038-3.462 0-85.166-67.92-154.468-152.548-156.696l-0.206-0.004zM511.73 672.415c-1.404 0.073-3.047 0.115-4.701 0.115-53.142 0-96.222-43.080-96.222-96.222s43.080-96.222 96.222-96.222c53.142 0 96.222 43.080 96.222 96.222 0 0.003 0 0.007 0 0.010v-0.001c0.014 0.605 0.022 1.317 0.022 2.032 0 51.071-40.685 92.64-91.412 94.063l-0.131 0.003z" />
<glyph unicode="&#xe934;" glyph-name="telephone" d="M134.483 940.232l0.024 0.026c11.629 12.202 28.039 19.806 46.226 19.806s34.597-7.604 46.25-19.832l138.697-189.601c11.008-12.746 17.666-29.354 17.666-47.517s-6.658-34.771-17.587-47.424l-56.609-57.907 3.201-4.643c44.633-61.636 93.571-119.95 145.959-174.070l0.168-0.171c60.839-61.535 126.003-118.785 199.51-174.548l54.872 55.873c12.127 11.309 28.401 18.228 46.291 18.228s34.164-6.92 46.25-18.191l185.112-142.324c12.99-11.644 21.163-28.553 21.163-47.371s-8.173-35.727-21.222-47.424l-92.501-94.847c-51.068-51.916-117.561-35.443-185.052 0l-8.696 4.946c-134.913 82.543-259.211 180.735-370.393 292.075l1.157-1.248c-108.74 116.185-205.182 244.022-292.886 391.619-26.507 74.879-51.068 137.279 0 189.694l92.551 94.847zM224.339 605.771l74.28 75.878c6.959 8.058 11.198 18.635 11.198 30.201s-4.239 22.143-11.248 30.261l0.050-0.059-88.308 120.805c-6.887 8.809-17.515 14.419-29.453 14.419s-22.565-5.61-29.391-14.337l-0.062-0.082-58.855-60.403c-9.681-15.11-15.431-33.544-15.431-53.321 0-16.816 4.157-32.66 11.5-46.562l-0.262 0.544c82.076-143.685 174-267.887 278.644-380.071l-1.091 1.182c117.161-130.29 393.266-308.503 393.266-308.503 12.858-5.336 27.791-8.435 43.448-8.435 19.448 0 37.78 4.781 53.883 13.233l-0.637-0.305 58.905 60.403c6.959 8.058 11.198 18.635 11.198 30.201s-4.239 22.143-11.248 30.261l0.050-0.059-117.76 90.354c-7.733 7.094-18.085 11.441-29.453 11.441s-21.72-4.347-29.485-11.47l0.032 0.029-72.533-74.38c-17.072 12.48-289.633 196.184-441.239 448.777z" />
<glyph unicode="&#xe935;" glyph-name="trumpet" horiz-adv-x="1138" d="M695.866-63.493v75.265c208.157 39.188 363.524 219.564 363.524 436.228s-155.367 397.041-360.766 435.796l-2.757 0.433v75.265c248.735-40.886 436.177-254.3 436.177-511.493s-187.443-470.607-433.172-511.084l-3.005-0.409zM514.104 9.212l-326.659 219.138h-109.057c-40.203 0.232-72.705 32.877-72.705 73.113 0 0.036 0 0.073 0 0.109v-0.006 292.867c0 0.031 0 0.067 0 0.104 0 40.236 32.501 72.881 72.683 73.113h109.079l326.659 219.138c40.161-0.028 72.706-32.591 72.706-72.756 0-0.162-0.001-0.324-0.002-0.486v0.025-731.143c0.001-0.137 0.001-0.299 0.001-0.461 0-40.164-32.546-72.728-72.703-72.756h-0.003zM187.445 557.569c0.001 0.076 0.001 0.167 0.001 0.257 0 20.129-16.245 36.463-36.339 36.607h-36.366c-20.108-0.145-36.353-16.479-36.353-36.607 0-0.090 0-0.181 0.001-0.271v0.014-219.138c-0.001-0.076-0.001-0.167-0.001-0.257 0-20.129 16.245-36.463 36.339-36.607h36.366c20.108 0.145 36.353 16.479 36.353 36.607 0 0.090 0 0.181-0.001 0.271v-0.014 219.138zM514.104 173.565v640.006l-253.955-159.746v-411.652l253.955-159.746v91.137zM913.98 448c0-0.141 0-0.307 0-0.473 0-127.733-94.076-233.494-216.72-251.774l-1.395-0.171v73.217c83.617 18.094 145.348 91.439 145.348 179.202s-61.731 161.107-144.141 178.982l-1.208 0.22v73.217c124.039-18.452 218.115-124.212 218.115-251.945 0-0.166 0-0.333 0-0.499v0.026z" />
</font>
</defs>
</svg>
